<?xml version="1.0" encoding="utf-8"?>
<!-- Generator: Adobe Illustrator 23.0.3, SVG Export Plug-In . SVG Version: 6.00 Build 0)  -->
<svg version="1.1" id="Layer_1" xmlns="http://www.w3.org/2000/svg" xmlns:xlink="http://www.w3.org/1999/xlink" x="0px" y="0px"
	 viewBox="0 0 400 346" style="enable-background:new 0 0 400 346;" xml:space="preserve">
<style type="text/css">
	.st0{fill:#666600;}
	.st1{fill:#D85A46;}
	.st2{fill:#4AA04C;}
	.st3{fill:#55BA5A;}
	.st4{fill:#ADDBCE;}
	.st5{fill:#6CCF91;}
	.st6{fill:#2A3744;}
	.st7{fill:#668700;}
	.st8{fill:#FFFFFF;}
</style>
<path class="st1" d="M30.2,112.6C12.7,116,1.4,133.6,5,151.7s39.9,41.1,41.1,40.8c1.2-0.2,26-35.2,22.4-53.4
	C64.9,121,47.8,109.1,30.2,112.6z M51.8,143.2c1.6,8.2-3.7,16.2-11.9,17.8c-8.2,1.6-16.2-3.7-17.8-11.9c-1.6-8.2,3.7-16.2,11.9-17.8
	C42.2,129.7,50.1,135,51.8,143.2z"/>
<path class="st7" d="M48.9,187.3c-0.2,0.3-0.4,0.7-0.6,1c0,0,0,0,0,0C48.5,188,48.7,187.6,48.9,187.3z"/>
<path class="st7" d="M139.3,174L139.3,174C139.3,174,139.3,173.9,139.3,174C139.3,173.9,139.3,174,139.3,174z"/>
<path class="st7" d="M236.4,182.1c-0.1,0.2-0.3,0.5-0.4,0.7c0,0,0,0,0,0C236.1,182.6,236.2,182.4,236.4,182.1z"/>
<path class="st5" d="M379,234l-0.3-1c-0.7-2.2-2.4-6.9-2.5-7.2c-3.4-9.1-7.5-18-12.2-26.5l-0.4-0.8c-1.1-1.9-2.2-3.8-3.3-5.6
	l-0.7-1.2c-1.1-1.8-2.3-3.7-3.5-5.5l-0.5-0.7c-3.8-5.7-8-11.2-12.4-16.5l-0.8-0.9c-1.3-1.5-2.5-2.9-3.8-4.3l-1.6-1.7
	c-1.2-1.3-2.5-2.6-3.8-3.9c-0.5-0.5-1.1-1.1-1.6-1.6l-0.2-0.2c-1.3-1.3-2.5-2.5-3.9-3.7l-0.1-0.1l-1.6-1.4c-2.6-2.4-5.3-4.7-8.1-7
	l-0.7-0.6c-0.3-0.3-0.6-0.5-0.9-0.8c-1-0.8-2-1.6-3-2.3l-1-0.7c-0.8-0.6-1.7-1.3-2.5-1.9c-1.2-0.9-2.4-1.7-3.6-2.5
	c-1.1-0.7-2.1-1.4-3.2-2.1c-1.2-0.8-2.3-1.5-3.5-2.3c-1.2-0.7-2.4-1.5-3.6-2.2l-0.9-0.5c-0.8-0.5-1.6-1-2.4-1.4
	c-1.9-1.1-3.9-2.1-5.9-3.2c-0.9-0.5-1.8-0.9-2.7-1.4l-0.6-0.3c-1.6-0.8-3.3-1.6-4.9-2.3c-0.8-0.3-1.5-0.7-2.3-1l-0.8-0.4
	c-1.5-0.6-3-1.3-4.5-1.9c-1.1-0.4-2.2-0.8-3.2-1.2c-1.6-0.6-3.2-1.1-4.8-1.7l-0.7-0.2c-0.8-0.3-1.6-0.5-2.4-0.8
	c-1.9-0.6-3.9-1.2-5.8-1.7l-1-0.3c-0.4-0.1-0.8-0.2-1.2-0.3c-2.6-0.7-5.3-1.3-8-1.9c-0.4-0.1-0.9-0.2-1.3-0.3l-1-0.2
	c-2-0.4-4-0.8-6-1.1c-0.8-0.1-1.6-0.3-2.4-0.4l-0.6-0.1c-1.8-0.3-3.7-0.5-5.5-0.7c-1-0.1-2.1-0.2-3.1-0.3c-1.9-0.2-3.9-0.3-5.9-0.5
	l-1-0.1c-0.6,0-1.2-0.1-1.7-0.1c-6.5-0.3-11.6-0.3-17.7,0c-0.6,0-1.2,0.1-1.8,0.1l-1.2,0.1c-2,0.1-4,0.3-5.9,0.5
	c-0.5,0.1-1,0.1-1.5,0.2l-2,0.2c-1.8,0.2-3.5,0.4-5.3,0.7c-1,0.2-2,0.3-2.9,0.5l-0.7,0.1c-1.7,0.3-3.3,0.6-5,0.9
	c-1.3,0.3-2.5,0.5-3.7,0.8c-1.6,0.4-3.2,0.7-4.8,1.1c-1.2,0.3-2.5,0.7-3.7,1c-1,0.3-2,0.6-3,0.9l-1.6,0.5c-1,0.3-2,0.6-3,1l-0.7,0.2
	c-1.5,0.5-3,1-4.5,1.6l-0.4,0.1c-1.1,0.4-2.2,0.8-3.3,1.2c-1.5,0.6-2.9,1.2-4.4,1.8l-1,0.4c-0.9,0.4-1.7,0.7-2.6,1.1
	c-1.2,0.6-2.5,1.2-3.7,1.8l-4,2c-0.8,0.4-1.6,0.9-2.4,1.3l-2,1.1c-1.5,0.8-2.9,1.6-4.4,2.5c-1.9,1.1-3.8,2.2-5.7,3.4
	c-0.9,0.5-1.7,1.1-2.6,1.7l-2.1,1.4c-0.8,0.5-1.6,1.1-2.4,1.6c-1,0.7-2,1.4-2.9,2.1l-1.4,1c-0.9,0.6-1.7,1.2-2.5,1.9
	c-0.5,0.4-1.1,0.8-1.6,1.3l-5,4.1c-1.2,1.1-2.5,2.1-3.7,3.2c-0.6,0.5-1.2,1.1-1.8,1.6c-0.3,0.3-0.6,0.5-0.9,0.8
	c-1.2,1.1-2.4,2.3-3.6,3.5c-0.8,0.8-1.6,1.6-2.4,2.4c-1.2,1.2-2.4,2.5-3.6,3.7c-0.7,0.8-1.4,1.6-2.2,2.4c-1.2,1.3-2.4,2.7-3.6,4
	c-0.5,0.6-0.9,1.1-1.4,1.7l-0.9,1.1c-0.7,0.8-1.3,1.6-2,2.4c10.3,5.1,21.7,9.5,33.8,13.2l-7.4,24.4c-14.8-4.5-28.6-10-41-16.4
	c-1,1.7-2,3.5-3,5.2l-0.4,0.7c-0.4,0.7-0.8,1.4-1.2,2.1c-1.2,2.3-2.4,4.7-3.6,7.1l-0.5,1c-1,2.1-1.9,4.2-2.8,6.3l-0.7,1.7
	c-0.9,2-1.7,4.1-2.5,6.2l-0.7,2c-0.8,2-1.5,4.1-2.2,6.2l-0.7,2.1c-0.7,2.1-1.3,4.2-1.9,6.3l-0.6,2c-0.6,2.2-1.1,4.4-1.7,6.6
	l-0.4,1.7c-0.5,2.4-1,4.7-1.5,7l-0.2,1.4c-0.3,1.9-0.7,3.7-0.9,5.6l-0.2,2c0,0.1,0,0.2,0,0.3c4,0.9,8.5,1.4,13.5,1.7
	c3.4,0.2,7,0.2,11.4,0.2c23.5,0.3,47.1-4.1,64.9-7.9c18.6-4,37.4-9,55.5-13.8c19.7-5.2,40.1-10.6,60.4-14.8
	c14.6-3,27.9-5.1,40.5-6.5l4-0.4c1.4-0.1,2.8-0.3,4.2-0.4c1-0.1,2.1-0.2,3.1-0.3c2.2-0.2,4.4-0.3,6.5-0.5l2.5-0.2
	c2.7-0.1,5.3-0.2,8-0.3c1.7,0,3.4-0.1,5.1-0.1l2.5,0c5.4,0,10.5,0.2,15.4,0.5l0,0l4.8,0.3c8.6,0.7,16.3,1.9,23.6,3.4l28.9,7.1
	C379.5,235.4,379.3,234.7,379,234z"/>
<path class="st0" d="M98.9,186.5c-12.2-3.7-23.5-8.1-33.8-13.2c-0.4,0.5-0.8,1-1.2,1.4l-1.4,1.8c-1.3,1.7-2.6,3.4-3.8,5.1l-0.4,0.6
	c-1.6,2.2-3.2,4.7-5,7.5c-1,1.6-2,3.2-2.9,4.7c12.5,6.4,26.2,11.9,41,16.4L98.9,186.5z"/>
<g>
	<path class="st1" d="M143.1,220.8c-3.1-0.2-6.1-0.6-8.9-0.9c-1-0.1-1.9-0.2-2.9-0.4c-1-0.1-2.1-0.3-3.4-0.5l-7.4-1.2l-6.9-1.3
		c-1-0.2-2-0.4-3.3-0.7l-2.6-0.6c-3-0.6-5.8-1.4-8.6-2.1c-0.9-0.2-1.9-0.5-2.8-0.7l6.4-24.7c1,0.3,2,0.5,3,0.8
		c2.6,0.7,5.1,1.4,7.5,1.9l3,0.7c0.9,0.2,1.5,0.4,2.1,0.5l0.1,0l6.7,1.3l6.9,1.1c0.9,0.1,1.5,0.2,2.1,0.3l0.1,0
		c1,0.1,2.1,0.3,3.1,0.4c2.6,0.3,5.1,0.6,7.5,0.8L143.1,220.8z"/>
</g>
<g>
	<path class="st2" d="M167.5,221.8c-0.5,0-1,0-1.5,0l-6.4,0c-1.4,0-2.8-0.1-4.1-0.1c-0.6,0-1.2-0.1-1.9-0.1l-3.2-0.1
		c-1,0-2-0.1-3.2-0.2l2.6-25.4c0.5,0,1.1,0.1,1.8,0.1l3.1,0.1c0.7,0,1.4,0.1,2.1,0.1c1.1,0.1,2.2,0.1,3.1,0.1l6.2,0
		c1.5,0,3,0,4.2-0.1l0.2,0l5.6-0.2c0.4,0,0.8,0,1.2,0c0.4,0,0.8,0,1.1,0l9.7-0.8l3.9-0.5l3.3,25.3l-4.8,0.6l-9.8,0.8
		c-1,0.1-1.8,0.1-2.5,0.1c-0.3,0-0.5,0-0.8,0l-0.2,0l-5.5,0.2C170.2,221.8,168.8,221.8,167.5,221.8z"/>
</g>
<g>
	<g>
		<path class="st3" d="M199.9,219.2l-3.7-25.2c14-2.1,27.8-5.6,41.3-10.4l8.7,24C231.1,213,215.6,216.9,199.9,219.2z"/>
	</g>
</g>
<g>
	<g>
		<path class="st4" d="M250.8,205.8l-9.5-23.6l8-3.2c0.7-0.3,1.3-0.5,1.7-0.7l0.2-0.1l10-4.6l9.6-5.1c0.3-0.2,0.7-0.4,1.1-0.6
			c0.2-0.1,0.6-0.3,0.7-0.4l0.2-0.1l7.3-4.4l13.1,21.9l-7.2,4.3c-0.9,0.6-1.7,1-2.4,1.3c-0.2,0.1-0.4,0.2-0.6,0.3l-0.2,0.1
			l-10.6,5.6l-10.1,4.7c-1.2,0.6-2.4,1-3.3,1.4L250.8,205.8z"/>
	</g>
</g>
<path class="st1" d="M343.2,6.3C304.9-4,265.1,19.8,254.3,59.6c-10.7,39.8,39.1,121.1,41.7,121.8c2.6,0.7,86.6-44.6,97.3-84.4
	C404,57.3,381.6,16.7,343.2,6.3z M355.9,88.6c-4.8,18-23.3,28.6-41.3,23.7c-18-4.8-28.6-23.3-23.7-41.3s23.3-28.6,41.3-23.7
	C350.1,52.2,360.8,70.7,355.9,88.6z"/>
<g>
	<path class="st0" d="M254.1,299.2l8.2-4.7c0.2-0.1,0.3-0.3,0.4-0.5c0.1-0.2,0-0.5-0.1-0.7c-4.6-7.2-12.5-11.8-21-12.2c0,0,0,0,0,0
		c-0.2,0-0.4,0.1-0.6,0.2c-0.2,0.2-0.3,0.4-0.3,0.6v9.4c0,0.4,0.3,0.8,0.8,0.8c4.7,0.3,8.9,2.8,11.6,6.7
		C253.2,299.3,253.7,299.4,254.1,299.2z"/>
	<g>
		<path class="st1" d="M263.7,295.4c-0.1-0.2-0.3-0.4-0.5-0.4c-0.1,0-0.2,0-0.2,0c-0.1,0-0.3,0-0.4,0.1l-8.2,4.7
			c-0.4,0.2-0.5,0.7-0.3,1.1c1,2.1,1.5,4.4,1.5,6.7s-0.5,4.6-1.5,6.7c-0.2,0.4,0,0.9,0.3,1.1l8.2,4.7c0.2,0.1,0.4,0.1,0.6,0.1
			c0.2-0.1,0.4-0.2,0.5-0.4c2-3.8,3-7.9,3-12.2C266.7,303.3,265.7,299.2,263.7,295.4z"/>
	</g>
	<g>
		<path class="st2" d="M262.2,320.6l-8.2-4.7c-0.1-0.1-0.3-0.1-0.4-0.1c-0.3,0-0.5,0.1-0.7,0.4c-2.7,3.9-6.9,6.4-11.6,6.7
			c-0.4,0-0.8,0.4-0.8,0.8v9.4c0,0.2,0.1,0.4,0.3,0.6c0.2,0.2,0.4,0.2,0.6,0.2c8.5-0.4,16.4-4.9,21-12.2c0.1-0.2,0.2-0.4,0.1-0.7
			C262.6,320.9,262.4,320.7,262.2,320.6z"/>
	</g>
	<g>
		<path class="st3" d="M239.2,322.8c-4.7-0.3-8.9-2.8-11.6-6.7c-0.2-0.4-0.7-0.5-1.1-0.3l-8.2,4.7c-0.2,0.1-0.3,0.3-0.4,0.5
			c-0.1,0.2,0,0.5,0.1,0.7c4.6,7.2,12.5,11.8,21,12.2c0.2,0,0.5-0.1,0.6-0.2c0.2-0.2,0.3-0.4,0.3-0.6v-9.4
			C239.9,323.2,239.6,322.9,239.2,322.8z"/>
	</g>
	<g>
		<path class="st4" d="M239.1,281.1C239.1,281.1,239,281.1,239.1,281.1c-8.6,0.4-16.4,4.9-21.1,12.2c-0.1,0.2-0.2,0.4-0.1,0.7
			c0.1,0.2,0.2,0.4,0.4,0.5l8.9,5.1c2.6-4.3,7.1-7,12-7.3c0.4,0,0.8-0.4,0.8-0.8V282c0-0.2-0.1-0.4-0.3-0.6
			C239.5,281.2,239.3,281.1,239.1,281.1z"/>
	</g>
	<g>
		<path class="st5" d="M224.9,307.5c0-2.3,0.5-4.6,1.5-6.7c0.2-0.4,0-0.9-0.3-1.1l-8.2-4.7c-0.1-0.1-0.3-0.1-0.4-0.1
			c-0.1,0-0.2,0-0.2,0c-0.2,0.1-0.4,0.2-0.5,0.4c-2,3.8-3,7.9-3,12.2c0,4.3,1,8.4,3,12.2c0.1,0.2,0.3,0.4,0.5,0.4
			c0.2,0.1,0.5,0,0.6-0.1l8.2-4.7c0.4-0.2,0.5-0.7,0.3-1.1C225.4,312.1,224.9,309.9,224.9,307.5z"/>
	</g>
</g>
<g>
	<g>
		<path class="st6" d="M37.2,292H25.3v-10.5h36V292h-12v42.1H37.2V292z"/>
		<path class="st6" d="M90.9,335.5c-4.4,0-8.3-0.8-11.7-2.3c-3.5-1.5-6.4-3.6-8.8-6.1c-2.4-2.6-4.2-5.5-5.5-8.8
			c-1.3-3.3-1.9-6.8-1.9-10.4s0.6-7.1,1.9-10.4c1.3-3.3,3.1-6.3,5.5-8.8c2.4-2.6,5.3-4.6,8.8-6.1c3.5-1.5,7.4-2.3,11.7-2.3
			c4.4,0,8.3,0.8,11.7,2.3c3.4,1.5,6.4,3.6,8.8,6.1c2.4,2.6,4.2,5.5,5.5,8.8c1.3,3.3,1.9,6.8,1.9,10.4s-0.6,7.1-1.9,10.4
			c-1.3,3.3-3.1,6.3-5.5,8.8c-2.4,2.6-5.3,4.6-8.8,6.1C99.1,334.7,95.2,335.5,90.9,335.5z M90.9,324.5c2.4,0,4.6-0.5,6.5-1.4
			c1.9-0.9,3.5-2.2,4.9-3.7c1.3-1.6,2.3-3.3,3-5.3c0.7-2,1.1-4.1,1.1-6.2c0-2.2-0.4-4.2-1.1-6.2c-0.7-2-1.7-3.8-3-5.3
			c-1.3-1.6-2.9-2.8-4.9-3.7c-1.9-0.9-4.1-1.4-6.5-1.4c-2.4,0-4.6,0.5-6.5,1.4c-1.9,0.9-3.5,2.2-4.9,3.7c-1.3,1.6-2.3,3.3-3,5.3
			c-0.7,2-1.1,4.1-1.1,6.2c0,2.2,0.3,4.2,1.1,6.2c0.7,2,1.7,3.8,3,5.3c1.3,1.6,2.9,2.8,4.9,3.7C86.3,324,88.5,324.5,90.9,324.5z"/>
		<path class="st6" d="M127.6,281.5h22.1c2.9,0,5.5,0.5,7.9,1.5c2.4,1,4.4,2.4,6.1,4.1c1.7,1.7,3,3.7,3.9,6.1
			c0.9,2.3,1.4,4.7,1.4,7.3c0,3.7-0.9,7.1-2.7,10.1c-1.8,3-4.4,5.3-7.7,6.9l10.5,16.6h-14.1l-9.3-14.6h-5.7v14.6h-12.2V281.5z
			 M148.2,309.6c1.3,0,2.4-0.3,3.5-0.8c1.1-0.5,1.9-1.2,2.7-2c0.7-0.8,1.3-1.8,1.7-2.9c0.4-1.1,0.6-2.3,0.6-3.5
			c0-1.2-0.2-2.4-0.6-3.5c-0.4-1.1-1-2.1-1.7-2.9c-0.7-0.8-1.6-1.5-2.7-2c-1.1-0.5-2.2-0.8-3.5-0.8h-8.3v18.2H148.2z"/>
		<path class="st6" d="M184.4,292h-11.9v-10.5h36V292h-12v42.1h-12.2V292z"/>
		<path class="st6" d="M274.9,281.5h12.3v52.6h-12.3V281.5z"/>
		<path class="st6" d="M308.8,316.7c0,2.9,0.8,5.1,2.3,6.7c1.6,1.6,3.6,2.4,6.1,2.4c2,0,3.6-0.6,4.9-1.7c1.3-1.1,2-2.6,2-4.5
			c0-1.1-0.2-1.9-0.6-2.7c-0.4-0.7-1-1.4-1.7-1.9c-0.7-0.6-1.6-1-2.6-1.5c-1-0.4-2.1-0.9-3.2-1.3c-2.4-0.9-4.7-1.8-6.9-2.7
			c-2.2-0.9-4.1-2-5.7-3.3c-1.6-1.3-2.9-2.8-3.8-4.6c-1-1.8-1.4-4-1.4-6.7c0-2.4,0.5-4.5,1.5-6.4c1-1.9,2.4-3.4,4.1-4.7
			c1.7-1.3,3.7-2.2,5.9-2.8c2.2-0.6,4.5-0.9,7-0.9c3.1,0,5.8,0.5,8.2,1.4c2.4,0.9,4.3,2.1,5.9,3.7c1.6,1.6,2.7,3.3,3.5,5.3
			c0.8,2,1.2,4.1,1.2,6.4h-12.2c0-2.4-0.6-4.2-1.7-5.6c-1.1-1.4-2.7-2-4.9-2c-1.8,0-3.3,0.5-4.5,1.4c-1.3,0.9-1.9,2.3-1.9,4.1
			c0,1.8,0.7,3.1,2.1,4.2c1.4,1,3.2,1.9,5.5,2.7c2.2,0.8,4.3,1.6,6.5,2.4c2.2,0.9,4.2,2,5.9,3.2c1.8,1.3,3.2,2.8,4.3,4.7
			c1.1,1.8,1.7,4,1.7,6.7c0,2.7-0.5,5.1-1.5,7.2c-1,2.1-2.3,3.9-4.1,5.3c-1.8,1.4-3.8,2.5-6.2,3.2c-2.4,0.7-5.1,1.1-8,1.1
			c-2.8,0-5.4-0.4-7.9-1.2c-2.4-0.8-4.5-2-6.3-3.6c-1.8-1.6-3.2-3.6-4.2-5.9c-1-2.3-1.5-5-1.5-8H308.8z"/>
		<path class="st6" d="M358.1,291.3v12H378v9.6h-19.9v11.6H378v9.8h-32.1v-52.6H378v9.8H358.1z"/>
	</g>
</g>
</svg>
