<?xml version="1.0" encoding="utf-8"?>
<!-- Generator: Adobe Illustrator 24.0.2, SVG Export Plug-In . SVG Version: 6.00 Build 0)  -->
<svg version="1.1" id="Capa_1" xmlns="http://www.w3.org/2000/svg" xmlns:xlink="http://www.w3.org/1999/xlink" x="0px" y="0px"
	 viewBox="0 0 323.9 691" style="enable-background:new 0 0 323.9 691;" xml:space="preserve">
<style type="text/css">
	.st0{fill:none;stroke:#666666;stroke-width:2;stroke-linecap:round;stroke-linejoin:round;stroke-opacity:0.698;}
</style>
<g id="Capa_1_1_">
	<g transform="matrix( 1, 0, 0, 1, 0,0) ">
		<g>
			<path class="st0" d="M322.9,272.3v144c-0.1,0.1-0.2,0.3-0.3,0.4v193.6c-4.3,7.3-9.1,14-14.5,20.3c-12.6,14.6-28.3,26.6-47,35.9
				c-3.6,1.8-7.4,3.5-11.2,5.1c-0.5,0.2-1,0.4-1.5,0.6c-15.8,6.4-33.5,11.1-53.1,14.3c-10.4,1.6-21.3,2.8-32.7,3.5
				c-11.3-1.1-22.1-2.5-32.3-4.3c-18.7-3.3-35.6-7.8-50.6-13.5c-0.2-0.1-0.4-0.1-0.6-0.2c-4-1.6-7.8-3.2-11.5-4.9
				c-19.4-8.9-35.2-20.2-47.4-33.8c-8-8.9-14.4-18.9-19.3-29.9V86.3C6.7,76,13.4,66.8,21.2,58.3c10.9-11.9,23.8-22,38.7-30.3
				C70.8,22.1,82.7,17,95.7,13c19.7-6.2,41.8-10.2,66.5-12C188,3.2,211,7.4,231,13.5c13.4,4.1,25.4,9.1,36.2,15
				c15.5,8.4,28.3,18.7,38.4,30.8c6.9,8.3,12.6,17.4,17.1,27.3v185.3C322.7,272,322.9,272.1,322.9,272.3z M267.2,28.5
				c-4.7-0.5-7,0.5-6.9,3.1c7.5,13.2,22.6,22.4,45.3,27.7 M95.7,13c-2.9,2.2-1.2,4,5,5.5c18.4-7.2,38.9-11.1,61.5-11.8
				c22.4,0.5,43.7,4.5,63.8,11.8c4.6-0.9,6.3-2.5,5.1-5 M200.9,102.4c0,0.4,0,0.9,0,1.3c-0.3,9.4-3.8,17.5-10.6,24.2
				c-7,7.1-15.5,10.6-25.5,10.6c-10,0-18.5-3.5-25.6-10.6c-6.7-6.7-10.2-14.8-10.5-24.2c0-0.4-0.1-0.9-0.1-1.3
				c0-10,3.5-18.5,10.6-25.5c7.1-7,15.6-10.6,25.6-10.6c10,0,18.5,3.5,25.5,10.6C197.4,84,200.9,92.5,200.9,102.4z M309.5,577.1
				V147.9h-54.8v9.3c-2.9,12.6-9.5,18.1-20,16.4H92c-13.6-0.7-20.2-6.5-19.9-17.4l0.1-8.3H17.8v430.7h18.7c6.3,1,9.9,4.2,10.8,9.6
				c-0.7,5.2,1.7,9.3,7.3,12.3c70.5,19.6,142.5,19.6,216,0c8-2.1,11.4-5.6,10.1-10.5c-1.8-5.7,1-9.8,8.3-12.3L309.5,577.1z
				 M17.8,147.9v-44.1h54.7L73.2,44c-1.6-10.7,4.3-16.8,17.5-18.1h144.4c12.6,0.1,19.1,6.7,19.6,19.9v58h53.9l0.9,44.1 M254.7,103.8
				v44.1 M21.2,58.3c23.5-5,38.1-13.7,43.8-26.1c1.9-3.6,0.2-5-5.1-4.2 M72.2,147.9l0.4-44.1 M79.2,672c-2.4-4.2,6.3-4.2,26.2,0
				c0.2,0.1,0.5,0.1,0.8,0.3c11.6,4.1,19.7,8.6,24.3,13.5 M20.3,633.2c15.7,4.7,29.2,11.8,40.6,21.4c7.5,4.5,9.7,8.7,6.8,12.5
				 M261.1,666.5c-6,0-4.6-3.7,4.4-11c12.5-10.1,26.8-18.5,42.6-25 M195.3,686.4c4.5-5.2,13.3-9.4,26.4-12.8
				c1.5-0.6,3.1-1.1,4.6-1.5c7.6-2.1,15.4-2.3,23.6-0.6 M322.6,416.6V271.9"/>
		</g>
	</g>
</g>
</svg>
